<svg xmlns="http://www.w3.org/2000/svg" xmlns:xlink="http://www.w3.org/1999/xlink" width="85" height="86" viewBox="0 0 85 86"><defs><path id="92dpa" d="M1176.44 827.8c17.64 0 31.94 14.45 31.94 32.28 0 17.84-14.3 32.29-31.94 32.29-17.65 0-31.95-14.45-31.95-32.29 0-17.83 14.3-32.28 31.95-32.28z"/><path id="92dpb" d="M1176.44 840.71a19.27 19.27 0 0 1 19.16 19.37c0 10.7-8.58 19.38-19.16 19.38a19.27 19.27 0 0 1-19.17-19.38c0-10.7 8.58-19.37 19.17-19.37z"/><path id="92dpc" d="M1189.9 860.12c0 7.05-6 12.77-13.39 12.77-1.33 0-2.62-.19-3.84-.53l-4.56 2.57v-4.86a12.53 12.53 0 0 1-4.98-9.95c0-7.05 5.99-12.76 13.38-12.76 7.4 0 13.39 5.71 13.39 12.76zm-4.74-3.57l-6.57 3.74-3.5-3.74-7.3 8 6.64-3.75 3.41 3.75z"/><path id="92dpg" d="M1141 898v-76h71v76zm3.5-35.92c0 17.84 14.3 32.29 31.94 32.29s31.94-14.45 31.94-32.29c0-17.83-14.3-32.28-31.94-32.28-17.65 0-31.95 14.45-31.95 32.28z"/><path id="92dpo" d="M1136 905v-90h81v90zm21.27-40.92c0 10.7 8.58 19.38 19.17 19.38a19.27 19.27 0 0 0 19.16-19.38c0-10.7-8.58-19.37-19.16-19.37a19.27 19.27 0 0 0-19.17 19.37z"/><mask id="92dpe" width="2" height="2" x="-1" y="-1"><path fill="#fff" d="M1143 826h67v68h-67z"/><use xlink:href="#92dpa"/></mask><filter id="92dpd" width="111" height="120" x="1121" y="804" filterUnits="userSpaceOnUse"><feOffset dy="8" in="SourceGraphic" result="FeOffset1753Out"/><feGaussianBlur in="FeOffset1753Out" result="FeGaussianBlur1754Out" stdDeviation="4.8 4.8"/></filter><linearGradient id="92dpf" x1="1176.38" x2="1176.49" y1="892.37" y2="827.8" gradientUnits="userSpaceOnUse"><stop offset="0" stop-color="#006aff"/><stop offset="1" stop-color="#00c6ff"/></linearGradient><filter id="92dph" width="200%" height="200%" x="-50%" y="-50%"><feGaussianBlur in="SourceGraphic" result="FeGaussianBlur1775Out" stdDeviation="1 1"/></filter><mask id="92dpi"><use fill="#fff" xlink:href="#92dpa"/></mask><mask id="92dpk" width="2" height="2" x="-1" y="-1"><path fill="#fff" d="M1156 839h41v42h-41z"/><use xlink:href="#92dpb"/></mask><filter id="92dpj" width="81" height="82" x="1136" y="819" filterUnits="userSpaceOnUse"><feOffset in="SourceGraphic" result="FeOffset1790Out"/><feGaussianBlur in="FeOffset1790Out" result="FeGaussianBlur1791Out" stdDeviation="4 4"/></filter><mask id="92dpm" width="2" height="2" x="-1" y="-1"><path fill="#fff" d="M1156 839h41v42h-41z"/><use xlink:href="#92dpb"/></mask><filter id="92dpl" width="65" height="68" x="1144" y="827" filterUnits="userSpaceOnUse"><feOffset dy="2" in="SourceGraphic" result="FeOffset1807Out"/><feGaussianBlur in="FeOffset1807Out" result="FeGaussianBlur1808Out" stdDeviation="0.8 0.8"/></filter><linearGradient id="92dpn" x1="1176.6" x2="1176.27" y1="879.46" y2="840.71" gradientUnits="userSpaceOnUse"><stop offset="0" stop-color="#00c5ff"/><stop offset="1" stop-color="#006aff"/></linearGradient><filter id="92dpp" width="200%" height="200%" x="-50%" y="-50%"><feGaussianBlur in="SourceGraphic" result="FeGaussianBlur1829Out" stdDeviation="10 10"/></filter><mask id="92dpq"><use fill="#fff" xlink:href="#92dpb"/></mask><mask id="92dps" width="2" height="2" x="-1" y="-1"><path fill="#fff" d="M1162 846h29v30h-29z"/><use xlink:href="#92dpc"/></mask><filter id="92dpr" width="97" height="100" x="1128" y="812" filterUnits="userSpaceOnUse"><feOffset dy="2" in="SourceGraphic" result="FeOffset1844Out"/><feGaussianBlur in="FeOffset1844Out" result="FeGaussianBlur1845Out" stdDeviation="9.6 9.6"/></filter></defs><g><g transform="translate(-1134 -825)"><g filter="url(#92dpd)"><use fill="none" stroke-opacity=".5" stroke-width="0" mask="url(&quot;#92dpe&quot;)" xlink:href="#92dpa"/><use fill="#006089" fill-opacity=".5" xlink:href="#92dpa"/></g><use fill="#f3f3f3" xlink:href="#92dpa"/><use fill="url(#92dpf)" xlink:href="#92dpa"/><use fill="#9058a8" stroke="#9058a8" stroke-width="0" filter="url(#92dph)" mask="url(&quot;#92dpi&quot;)" xlink:href="#92dpg"/></g><g opacity=".8" transform="translate(-1134 -825)"><g filter="url(#92dpj)"><use fill="none" stroke-opacity=".05" stroke-width="0" mask="url(&quot;#92dpk&quot;)" xlink:href="#92dpb"/><use fill="#fff" fill-opacity=".05" xlink:href="#92dpb"/></g><g filter="url(#92dpj)"><use fill="none" stroke-opacity=".05" stroke-width="0" mask="url(&quot;#92dpk&quot;)" xlink:href="#92dpb"/><use fill="#fff" fill-opacity=".05" xlink:href="#92dpb"/></g><g filter="url(#92dpl)"><use fill="none" stroke-opacity=".75" stroke-width="0" mask="url(&quot;#92dpm&quot;)" xlink:href="#92dpb"/><use fill="#783298" fill-opacity=".75" xlink:href="#92dpb"/></g><use fill="#fff" xlink:href="#92dpb"/><use fill="url(#92dpn)" xlink:href="#92dpb"/><use fill="#c6cad3" fill-opacity=".35" stroke="#c6cad3" stroke-opacity=".35" stroke-width="0" filter="url(#92dpp)" mask="url(&quot;#92dpq&quot;)" xlink:href="#92dpo"/></g><g transform="translate(-1134 -825)"><g filter="url(#92dpr)"><use fill="none" stroke-opacity=".16" stroke-width="0" mask="url(&quot;#92dps&quot;)" xlink:href="#92dpc"/><use fill-opacity=".16" xlink:href="#92dpc"/></g><use fill="#fff" xlink:href="#92dpc"/></g></g></svg>