<svg xmlns="http://www.w3.org/2000/svg" xmlns:xlink="http://www.w3.org/1999/xlink" width="84" height="85" viewBox="0 0 84 85"><defs><path id="ifmga" d="M1176.43 481.04c17.64 0 31.94 14.43 31.94 32.24 0 17.81-14.3 32.25-31.94 32.25s-31.94-14.44-31.94-32.25c0-17.8 14.3-32.24 31.94-32.24z"/><path id="ifmgb" d="M1176.43 493.94a19.26 19.26 0 0 1 19.17 19.34 19.26 19.26 0 0 1-19.17 19.35 19.26 19.26 0 0 1-19.16-19.35 19.26 19.26 0 0 1 19.16-19.34z"/><path id="ifmgc" d="M1187.11 519.02c-.78-.95-1.7-1.76-2.57-2.62-.78-.78-.84-1.23-.2-2.13.69-.98 1.43-1.92 2.12-2.9.65-.9 1.32-1.81 1.66-2.9.21-.7.02-1-.68-1.12-.12-.03-.24-.03-.37-.03h-4.16c-.51 0-.8.22-.98.68-.24.62-.5 1.24-.79 1.85a15.2 15.2 0 0 1-2.43 3.79c-.23.24-.48.56-.86.43-.48-.18-.62-.98-.61-1.25v-4.87c-.1-.7-.25-1-.93-1.14h-4.33c-.57 0-.86.23-1.17.6-.18.2-.23.34.13.41.72.14 1.12.61 1.23 1.34.17 1.17.16 2.34.06 3.5-.02.35-.08.7-.22 1-.2.51-.54.61-.99.3a4 4 0 0 1-.96-1.06 23.66 23.66 0 0 1-2.54-4.78c-.19-.48-.53-.78-1.03-.78-1.25-.02-2.5-.03-3.75 0-.75.01-.97.38-.67 1.07a47.28 47.28 0 0 0 4.85 8.77 12.14 12.14 0 0 0 3.68 3.5 9.69 9.69 0 0 0 5.48 1.19c.9-.04 1.17-.28 1.22-1.2.03-.62.1-1.25.4-1.8.3-.56.75-.66 1.27-.32.26.17.48.39.7.62.5.57 1 1.15 1.52 1.7a2.94 2.94 0 0 0 2.44 1h3.82c.62-.04.94-.8.59-1.5a7.52 7.52 0 0 0-.93-1.35"/><path id="ifmgg" d="M1141 551v-75h71v75zm3.5-35.72c0 17.81 14.3 32.25 31.93 32.25 17.64 0 31.94-14.44 31.94-32.25 0-17.8-14.3-32.24-31.94-32.24s-31.94 14.43-31.94 32.24z"/><path id="ifmgo" d="M1136 558v-90h81v90zm21.27-40.72a19.26 19.26 0 0 0 19.16 19.35 19.26 19.26 0 0 0 19.17-19.35 19.26 19.26 0 0 0-19.17-19.34 19.26 19.26 0 0 0-19.16 19.34z"/><mask id="ifmge" width="2" height="2" x="-1" y="-1"><path fill="#fff" d="M1143 480h67v67h-67z"/><use xlink:href="#ifmga"/></mask><filter id="ifmgd" width="111" height="119" x="1121" y="458" filterUnits="userSpaceOnUse"><feOffset dy="8" in="SourceGraphic" result="FeOffset1419Out"/><feGaussianBlur in="FeOffset1419Out" result="FeGaussianBlur1420Out" stdDeviation="4.8 4.8"/></filter><linearGradient id="ifmgf" x1="1176.37" x2="1176.49" y1="545.53" y2="481.04" gradientUnits="userSpaceOnUse"><stop offset="0" stop-color="#1d75a7"/><stop offset="1" stop-color="#459cc0"/></linearGradient><filter id="ifmgh" width="200%" height="200%" x="-50%" y="-50%"><feGaussianBlur in="SourceGraphic" result="FeGaussianBlur1441Out" stdDeviation="1 1"/></filter><mask id="ifmgi"><use fill="#fff" xlink:href="#ifmga"/></mask><mask id="ifmgk" width="2" height="2" x="-1" y="-1"><path fill="#fff" d="M1156 492h41v42h-41z"/><use xlink:href="#ifmgb"/></mask><filter id="ifmgj" width="81" height="82" x="1136" y="472" filterUnits="userSpaceOnUse"><feOffset in="SourceGraphic" result="FeOffset1456Out"/><feGaussianBlur in="FeOffset1456Out" result="FeGaussianBlur1457Out" stdDeviation="4 4"/></filter><mask id="ifmgm" width="2" height="2" x="-1" y="-1"><path fill="#fff" d="M1156 492h41v42h-41z"/><use xlink:href="#ifmgb"/></mask><filter id="ifmgl" width="65" height="68" x="1144" y="480" filterUnits="userSpaceOnUse"><feOffset dy="2" in="SourceGraphic" result="FeOffset1473Out"/><feGaussianBlur in="FeOffset1473Out" result="FeGaussianBlur1474Out" stdDeviation="0.8 0.8"/></filter><linearGradient id="ifmgn" x1="1176.6" x2="1176.27" y1="532.63" y2="493.94" gradientUnits="userSpaceOnUse"><stop offset="0" stop-color="#50a4c4"/><stop offset="1" stop-color="#1f6a9c"/></linearGradient><filter id="ifmgp" width="200%" height="200%" x="-50%" y="-50%"><feGaussianBlur in="SourceGraphic" result="FeGaussianBlur1495Out" stdDeviation="10 10"/></filter><mask id="ifmgq"><use fill="#fff" xlink:href="#ifmgb"/></mask><filter id="ifmgr" width="98" height="88" x="1126" y="471" filterUnits="userSpaceOnUse"><feOffset dy="2" in="SourceGraphic" result="FeOffset1509Out"/><feGaussianBlur in="FeOffset1509Out" result="FeGaussianBlur1510Out" stdDeviation="9.6 9.6"/></filter></defs><g><g transform="translate(-1134 -479)"><g filter="url(#ifmgd)"><use fill="none" stroke-opacity=".35" stroke-width="0" mask="url(&quot;#ifmge&quot;)" xlink:href="#ifmga"/><use fill="#00436b" fill-opacity=".35" xlink:href="#ifmga"/></g><use fill="#f3f3f3" xlink:href="#ifmga"/><use fill="url(#ifmgf)" xlink:href="#ifmga"/><use fill="#4596ba" stroke="#4596ba" stroke-width="0" filter="url(#ifmgh)" mask="url(&quot;#ifmgi&quot;)" xlink:href="#ifmgg"/></g><g opacity=".8" transform="translate(-1134 -479)"><g filter="url(#ifmgj)"><use fill="none" stroke-opacity=".05" stroke-width="0" mask="url(&quot;#ifmgk&quot;)" xlink:href="#ifmgb"/><use fill="#fff" fill-opacity=".05" xlink:href="#ifmgb"/></g><g filter="url(#ifmgj)"><use fill="none" stroke-opacity=".05" stroke-width="0" mask="url(&quot;#ifmgk&quot;)" xlink:href="#ifmgb"/><use fill="#fff" fill-opacity=".05" xlink:href="#ifmgb"/></g><g filter="url(#ifmgl)"><use fill="none" stroke-opacity=".75" stroke-width="0" mask="url(&quot;#ifmgm&quot;)" xlink:href="#ifmgb"/><use fill="#09abe3" fill-opacity=".75" xlink:href="#ifmgb"/></g><use fill="#fff" xlink:href="#ifmgb"/><use fill="url(#ifmgn)" xlink:href="#ifmgb"/><use fill="#c6cad3" fill-opacity=".35" stroke="#c6cad3" stroke-opacity=".35" stroke-width="0" filter="url(#ifmgp)" mask="url(&quot;#ifmgq&quot;)" xlink:href="#ifmgo"/></g><g transform="translate(-1134 -479)"><g filter="url(#ifmgr)"><use fill="none" stroke-opacity=".16" stroke-width="-3.4e+38" xlink:href="#ifmgc"/></g><use fill="#fff" xlink:href="#ifmgc"/></g></g></svg>