<svg xmlns="http://www.w3.org/2000/svg" xmlns:xlink="http://www.w3.org/1999/xlink" width="85" height="85" viewBox="0 0 85 85"><defs><path id="7agha" d="M1176.6 712.21a32.18 32.18 0 0 1 32.08 32.28 32.18 32.18 0 0 1-32.09 32.27 32.18 32.18 0 0 1-32.08-32.27 32.18 32.18 0 0 1 32.08-32.28z"/><path id="7aghb" d="M1176.6 725.12a19.3 19.3 0 0 1 19.24 19.37 19.3 19.3 0 0 1-19.25 19.36 19.3 19.3 0 0 1-19.25-19.36 19.3 19.3 0 0 1 19.25-19.37z"/><path id="7aghc" d="M1189.72 749.68l-.01.03c-.64 2.64-3.55 5.48-6.21 6.07h-.03a34.18 34.18 0 0 1-8.41.57l-2.95 3.1c-.72.78-2 .25-2-.81v-2.95c-2.57-.75-5.26-3.45-5.87-5.98l-.01-.03c-.8-3.69-.8-7.43 0-11.12v-.03c.65-2.64 3.55-5.48 6.22-6.07h.03c4.3-.84 8.68-.84 12.99 0h.03c2.66.6 5.57 3.43 6.21 6.07v.03c.8 3.69.8 7.43 0 11.12zm-2.33-10.58c-.43-1.73-2.63-3.87-4.39-4.27-4-.77-8.06-.77-12.06 0-1.75.4-3.95 2.54-4.38 4.27a23.76 23.76 0 0 0 0 10.04c.43 1.73 2.63 3.87 4.38 4.26.08.02.14.09.14.17v4.88c0 .25.3.37.46.2l2.28-2.39 2.15-2.24a.16.16 0 0 1 .12-.05c2.31.07 4.62-.12 6.92-.57 1.75-.4 3.95-2.53 4.38-4.26.72-3.33.72-6.7 0-10.04zm-4.15 5.72c-.26 0-.38-.21-.4-.45-.03-.47-.05-.93-.11-1.4a5.82 5.82 0 0 0-4.65-4.9c-.36-.06-.73-.07-1.1-.11-.22-.03-.52-.04-.58-.33-.04-.25.16-.44.4-.45h.18c2.98.08.4.01.04 0a6.59 6.59 0 0 1 6.4 5.5c.1.56.14 1.12.18 1.68.02.24-.11.46-.36.46zm-6.25-5.54c.01-.21.16-.37.39-.35.74.04 1.46.2 2.11.56a4.34 4.34 0 0 1 2.33 3.37l.03.2.04.57-.03.23c-.09.33-.58.37-.7.04a1 1 0 0 1-.03-.32c0-.7-.15-1.39-.5-1.99a3.68 3.68 0 0 0-2.75-1.84l-.56-.07c-.22-.04-.34-.18-.33-.4zm2.45 3.88c-.02-.18-.04-.36-.08-.53a1.47 1.47 0 0 0-.53-.85c-.14-.1-.29-.17-.44-.22-.2-.05-.4-.04-.6-.09-.22-.05-.34-.23-.3-.43.03-.19.2-.33.4-.32 1.26.1 2.15.75 2.28 2.25.01.1.02.21 0 .32-.04.16-.16.24-.27.26h-.06c-.24 0-.38-.15-.4-.4zm-2.21 4.26c.28.12.57.26.9.22.54-.06.72-.67 1.1-1 .38-.3.86-.3 1.27-.05.4.26.8.54 1.18.82.39.28.77.55 1.12.87.34.3.46.7.27 1.11a3.75 3.75 0 0 1-1.6 1.79c-.2.1-.45.15-.69.22-.27-.08-.52-.14-.76-.24a17.34 17.34 0 0 1-6.54-4.44 17.26 17.26 0 0 1-2.5-3.88c-.32-.66-.6-1.35-.87-2.04-.25-.62.12-1.26.5-1.73.37-.44.85-.78 1.36-1.03.4-.2.79-.08 1.08.26.63.74 1.2 1.52 1.67 2.38.29.52.2 1.17-.31 1.53-.13.09-.24.19-.36.29-.1.08-.2.17-.27.29a.8.8 0 0 0-.06.7 6.3 6.3 0 0 0 3.5 3.93z"/><path id="7aghg" d="M1141 782v-75h71v75zm3.5-35.51a32.18 32.18 0 0 0 32.1 32.27 32.18 32.18 0 0 0 32.08-32.27 32.18 32.18 0 0 0-32.09-32.28 32.18 32.18 0 0 0-32.08 32.28z"/><path id="7agho" d="M1136 789v-89h81v89zm21.34-40.51a19.3 19.3 0 0 0 19.25 19.36 19.3 19.3 0 0 0 19.25-19.36 19.3 19.3 0 0 0-19.25-19.37 19.3 19.3 0 0 0-19.25 19.37z"/><mask id="7aghe" width="2" height="2" x="-1" y="-1"><path fill="#fff" d="M1143 711h67v67h-67z"/><use xlink:href="#7agha"/></mask><filter id="7aghd" width="111" height="119" x="1121" y="689" filterUnits="userSpaceOnUse"><feOffset dy="8" in="SourceGraphic" result="FeOffset1642Out"/><feGaussianBlur in="FeOffset1642Out" result="FeGaussianBlur1643Out" stdDeviation="4.8 4.8"/></filter><linearGradient id="7aghf" x1="1176.68" x2="1176.51" y1="776.76" y2="712.21" gradientUnits="userSpaceOnUse"><stop offset="0" stop-color="#6e2d8d"/><stop offset="1" stop-color="#8e59a8"/></linearGradient><filter id="7aghh" width="200%" height="200%" x="-50%" y="-50%"><feGaussianBlur in="SourceGraphic" result="FeGaussianBlur1664Out" stdDeviation="1 1"/></filter><mask id="7aghi"><use fill="#fff" xlink:href="#7agha"/></mask><mask id="7aghk" width="2" height="2" x="-1" y="-1"><path fill="#fff" d="M1156 724h41v41h-41z"/><use xlink:href="#7aghb"/></mask><filter id="7aghj" width="81" height="81" x="1136" y="704" filterUnits="userSpaceOnUse"><feOffset in="SourceGraphic" result="FeOffset1679Out"/><feGaussianBlur in="FeOffset1679Out" result="FeGaussianBlur1680Out" stdDeviation="4 4"/></filter><mask id="7aghm" width="2" height="2" x="-1" y="-1"><path fill="#fff" d="M1156 724h41v41h-41z"/><use xlink:href="#7aghb"/></mask><filter id="7aghl" width="65" height="67" x="1144" y="712" filterUnits="userSpaceOnUse"><feOffset dy="2" in="SourceGraphic" result="FeOffset1696Out"/><feGaussianBlur in="FeOffset1696Out" result="FeGaussianBlur1697Out" stdDeviation="0.8 0.8"/></filter><linearGradient id="7aghn" x1="1176.84" x2="1176.34" y1="763.85" y2="725.12" gradientUnits="userSpaceOnUse"><stop offset="0" stop-color="#853fa3"/><stop offset="1" stop-color="#510077"/></linearGradient><filter id="7aghp" width="200%" height="200%" x="-50%" y="-50%"><feGaussianBlur in="SourceGraphic" result="FeGaussianBlur1718Out" stdDeviation="10 10"/></filter><mask id="7aghq"><use fill="#fff" xlink:href="#7aghb"/></mask><mask id="7aghs" width="2" height="2" x="-1" y="-1"><path fill="#fff" d="M1162 730h30v32h-30z"/><use xlink:href="#7aghc"/></mask><filter id="7aghr" width="98" height="102" x="1128" y="696" filterUnits="userSpaceOnUse"><feOffset dy="2" in="SourceGraphic" result="FeOffset1733Out"/><feGaussianBlur in="FeOffset1733Out" result="FeGaussianBlur1734Out" stdDeviation="9.6 9.6"/></filter></defs><g><g transform="translate(-1134 -710)"><g><g filter="url(#7aghd)"><use fill="none" stroke-opacity=".5" stroke-width="0" mask="url(&quot;#7aghe&quot;)" xlink:href="#7agha"/><use fill="#3e005b" fill-opacity=".5" xlink:href="#7agha"/></g><use fill="#f3f3f3" xlink:href="#7agha"/><use fill="url(#7aghf)" xlink:href="#7agha"/><use fill="#9058a8" stroke="#9058a8" stroke-width="0" filter="url(#7aghh)" mask="url(&quot;#7aghi&quot;)" xlink:href="#7aghg"/></g><g opacity=".8"><g filter="url(#7aghj)"><use fill="none" stroke-opacity=".05" stroke-width="0" mask="url(&quot;#7aghk&quot;)" xlink:href="#7aghb"/><use fill="#fff" fill-opacity=".05" xlink:href="#7aghb"/></g><g filter="url(#7aghj)"><use fill="none" stroke-opacity=".05" stroke-width="0" mask="url(&quot;#7aghk&quot;)" xlink:href="#7aghb"/><use fill="#fff" fill-opacity=".05" xlink:href="#7aghb"/></g><g filter="url(#7aghl)"><use fill="none" stroke-opacity=".75" stroke-width="0" mask="url(&quot;#7aghm&quot;)" xlink:href="#7aghb"/><use fill="#783298" fill-opacity=".75" xlink:href="#7aghb"/></g><use fill="#fff" xlink:href="#7aghb"/><use fill="url(#7aghn)" xlink:href="#7aghb"/><use fill="#c6cad3" fill-opacity=".35" stroke="#c6cad3" stroke-opacity=".35" stroke-width="0" filter="url(#7aghp)" mask="url(&quot;#7aghq&quot;)" xlink:href="#7agho"/></g></g><g transform="translate(-1134 -710)"><g filter="url(#7aghr)"><use fill="none" stroke-opacity=".16" stroke-width="0" mask="url(&quot;#7aghs&quot;)" xlink:href="#7aghc"/><use fill-opacity=".16" xlink:href="#7aghc"/></g><use fill="#fff" xlink:href="#7aghc"/></g></g></svg>