<svg xmlns="http://www.w3.org/2000/svg" xmlns:xlink="http://www.w3.org/1999/xlink" width="84" height="85" viewBox="0 0 84 85"><defs><path id="s3p8a" d="M1176.42 943.38c17.65 0 31.95 14.47 31.95 32.31 0 17.85-14.3 32.32-31.95 32.32-17.64 0-31.94-14.47-31.94-32.32 0-17.84 14.3-32.3 31.94-32.3z"/><path id="s3p8b" d="M1176.42 956.3a19.28 19.28 0 0 1 19.17 19.4c0 10.7-8.58 19.38-19.17 19.38a19.28 19.28 0 0 1-19.16-19.39c0-10.7 8.58-19.38 19.16-19.38z"/><path id="s3p8c" d="M1187.02 966.32l-3.8 18.03a1.2 1.2 0 0 1-1.87.71l-5.73-4.18-2.91 2.96a.97.97 0 0 1-1.62-.38l-2.1-6.65-5.65-1.66a.8.8 0 0 1-.06-1.52l22.2-8.6c.85-.33 1.72.4 1.54 1.29zm-4.64 2.28l-12.18 7.51a.55.55 0 0 0-.24.63l1.63 5.24c.04.11.2.1.21-.02l.4-3.51a.55.55 0 0 1 .18-.35l10.32-9.07c.25-.22-.04-.6-.32-.43z"/><path id="s3p8g" d="M1141 1014v-76h71v76zm3.48-36.3c0 17.84 14.3 32.3 31.94 32.3 17.65 0 31.95-14.46 31.95-32.3 0-17.85-14.3-32.32-31.95-32.32-17.64 0-31.94 14.47-31.94 32.31z"/><path id="s3p8o" d="M1136 1021v-90h81v90zm21.26-41.3c0 10.7 8.58 19.38 19.16 19.38a19.28 19.28 0 0 0 19.17-19.39c0-10.7-8.58-19.38-19.17-19.38a19.28 19.28 0 0 0-19.16 19.38z"/><mask id="s3p8e" width="2" height="2" x="-1" y="-1"><path fill="#fff" d="M1143 942h67v68h-67z"/><use xlink:href="#s3p8a"/></mask><filter id="s3p8d" width="111" height="120" x="1121" y="920" filterUnits="userSpaceOnUse"><feOffset dy="8" in="SourceGraphic" result="FeOffset1864Out"/><feGaussianBlur in="FeOffset1864Out" result="FeGaussianBlur1865Out" stdDeviation="4.8 4.8"/></filter><linearGradient id="s3p8f" x1="1176.37" x2="1176.48" y1="1008.01" y2="943.38" gradientUnits="userSpaceOnUse"><stop offset="0" stop-color="#2292be"/><stop offset="1" stop-color="#03afe7"/></linearGradient><filter id="s3p8h" width="200%" height="200%" x="-50%" y="-50%"><feGaussianBlur in="SourceGraphic" result="FeGaussianBlur1886Out" stdDeviation="1 1"/></filter><mask id="s3p8i"><use fill="#fff" xlink:href="#s3p8a"/></mask><mask id="s3p8k" width="2" height="2" x="-1" y="-1"><path fill="#fff" d="M1156 955h41v42h-41z"/><use xlink:href="#s3p8b"/></mask><filter id="s3p8j" width="81" height="82" x="1136" y="935" filterUnits="userSpaceOnUse"><feOffset in="SourceGraphic" result="FeOffset1901Out"/><feGaussianBlur in="FeOffset1901Out" result="FeGaussianBlur1902Out" stdDeviation="4 4"/></filter><mask id="s3p8m" width="2" height="2" x="-1" y="-1"><path fill="#fff" d="M1156 955h41v42h-41z"/><use xlink:href="#s3p8b"/></mask><filter id="s3p8l" width="65" height="68" x="1144" y="943" filterUnits="userSpaceOnUse"><feOffset dy="2" in="SourceGraphic" result="FeOffset1918Out"/><feGaussianBlur in="FeOffset1918Out" result="FeGaussianBlur1919Out" stdDeviation="0.8 0.8"/></filter><linearGradient id="s3p8n" x1="1176.59" x2="1176.26" y1="995.08" y2="956.31" gradientUnits="userSpaceOnUse"><stop offset="0" stop-color="#00adf6"/><stop offset="1" stop-color="#007fb5"/></linearGradient><filter id="s3p8p" width="200%" height="200%" x="-50%" y="-50%"><feGaussianBlur in="SourceGraphic" result="FeGaussianBlur1940Out" stdDeviation="10 10"/></filter><mask id="s3p8q"><use fill="#fff" xlink:href="#s3p8b"/></mask><mask id="s3p8s" width="2" height="2" x="-1" y="-1"><path fill="#fff" d="M1161 963h28v24h-28z"/><use xlink:href="#s3p8c"/></mask><filter id="s3p8r" width="96" height="94" x="1127" y="929" filterUnits="userSpaceOnUse"><feOffset dy="2" in="SourceGraphic" result="FeOffset1955Out"/><feGaussianBlur in="FeOffset1955Out" result="FeGaussianBlur1956Out" stdDeviation="9.6 9.6"/></filter></defs><g><g transform="translate(-1134 -941)"><g filter="url(#s3p8d)"><use fill="none" stroke-opacity=".35" stroke-width="0" mask="url(&quot;#s3p8e&quot;)" xlink:href="#s3p8a"/><use fill-opacity=".35" xlink:href="#s3p8a"/></g><use fill="#f3f3f3" xlink:href="#s3p8a"/><use fill="url(#s3p8f)" xlink:href="#s3p8a"/><use fill="#03afe7" stroke="#03afe7" stroke-width="0" filter="url(#s3p8h)" mask="url(&quot;#s3p8i&quot;)" xlink:href="#s3p8g"/></g><g opacity=".8" transform="translate(-1134 -941)"><g filter="url(#s3p8j)"><use fill="none" stroke-opacity=".05" stroke-width="0" mask="url(&quot;#s3p8k&quot;)" xlink:href="#s3p8b"/><use fill="#fff" fill-opacity=".05" xlink:href="#s3p8b"/></g><g filter="url(#s3p8j)"><use fill="none" stroke-opacity=".05" stroke-width="0" mask="url(&quot;#s3p8k&quot;)" xlink:href="#s3p8b"/><use fill="#fff" fill-opacity=".05" xlink:href="#s3p8b"/></g><g filter="url(#s3p8l)"><use fill="none" stroke-opacity=".75" stroke-width="0" mask="url(&quot;#s3p8m&quot;)" xlink:href="#s3p8b"/><use fill="#09abe3" fill-opacity=".75" xlink:href="#s3p8b"/></g><use fill="#fff" xlink:href="#s3p8b"/><use fill="url(#s3p8n)" xlink:href="#s3p8b"/><use fill="#c6cad3" fill-opacity=".35" stroke="#c6cad3" stroke-opacity=".35" stroke-width="0" filter="url(#s3p8p)" mask="url(&quot;#s3p8q&quot;)" xlink:href="#s3p8o"/></g><g transform="translate(-1134 -941)"><g filter="url(#s3p8r)"><use fill="none" stroke-opacity=".16" stroke-width="0" mask="url(&quot;#s3p8s&quot;)" xlink:href="#s3p8c"/><use fill-opacity=".16" xlink:href="#s3p8c"/></g><use fill="#fff" xlink:href="#s3p8c"/></g></g></svg>