<svg xmlns="http://www.w3.org/2000/svg" xmlns:xlink="http://www.w3.org/1999/xlink" width="84" height="85" viewBox="0 0 84 85"><defs><path id="qsz0a" d="M1176.44 596.62c17.64 0 31.94 14.44 31.94 32.25 0 17.8-14.3 32.24-31.94 32.24s-31.95-14.43-31.95-32.24c0-17.81 14.3-32.25 31.95-32.25z"/><path id="qsz0b" d="M1176.44 609.52a19.26 19.26 0 0 1 19.16 19.35 19.26 19.26 0 0 1-19.16 19.34 19.26 19.26 0 0 1-19.17-19.34 19.26 19.26 0 0 1 19.17-19.35z"/><path id="qsz0c" d="M1186.52 623.76v10.45a2.27 2.27 0 0 1-2.29 2.24h-14.74c-1.26 0-2.29-1-2.29-2.24v-10.45a2.27 2.27 0 0 1 2.3-2.24h14.73c1.27 0 2.3 1 2.3 2.24zm-1.94 10.45v-9.07l-6.67 5.72a.75.75 0 0 1-.48.19h-1.13a.75.75 0 0 1-.49-.19l-6.66-5.72v9.07c0 .14.16.26.34.26h14.74c.19 0 .35-.12.35-.26zm-1.23-10.71h-12.97l6.48 5.58z"/><path id="qsz0g" d="M1141 667v-76h71v76zm3.5-36.13c0 17.8 14.3 32.24 31.94 32.24s31.94-14.43 31.94-32.24c0-17.81-14.3-32.25-31.94-32.25s-31.95 14.44-31.95 32.25z"/><path id="qsz0o" d="M1136 674v-90h81v90zm21.27-41.13a19.26 19.26 0 0 0 19.17 19.34 19.26 19.26 0 0 0 19.16-19.34 19.26 19.26 0 0 0-19.16-19.35 19.26 19.26 0 0 0-19.17 19.35z"/><mask id="qsz0e" width="2" height="2" x="-1" y="-1"><path fill="#fff" d="M1143 595h67v68h-67z"/><use xlink:href="#qsz0a"/></mask><filter id="qsz0d" width="111" height="120" x="1121" y="573" filterUnits="userSpaceOnUse"><feOffset dy="8" in="SourceGraphic" result="FeOffset1975Out"/><feGaussianBlur in="FeOffset1975Out" result="FeGaussianBlur1976Out" stdDeviation="4.8 4.8"/></filter><linearGradient id="qsz0f" x1="1176.38" x2="1176.49" y1="661.11" y2="596.62" gradientUnits="userSpaceOnUse"><stop offset="0" stop-color="#ff4a4b"/><stop offset="1" stop-color="#fa8283"/></linearGradient><filter id="qsz0h" width="200%" height="200%" x="-50%" y="-50%"><feGaussianBlur in="SourceGraphic" result="FeGaussianBlur1997Out" stdDeviation="1 1"/></filter><mask id="qsz0i"><use fill="#fff" xlink:href="#qsz0a"/></mask><mask id="qsz0k" width="2" height="2" x="-1" y="-1"><path fill="#fff" d="M1156 608h41v42h-41z"/><use xlink:href="#qsz0b"/></mask><filter id="qsz0j" width="81" height="82" x="1136" y="588" filterUnits="userSpaceOnUse"><feOffset in="SourceGraphic" result="FeOffset2012Out"/><feGaussianBlur in="FeOffset2012Out" result="FeGaussianBlur2013Out" stdDeviation="4 4"/></filter><mask id="qsz0m" width="2" height="2" x="-1" y="-1"><path fill="#fff" d="M1156 608h41v42h-41z"/><use xlink:href="#qsz0b"/></mask><filter id="qsz0l" width="65" height="68" x="1144" y="596" filterUnits="userSpaceOnUse"><feOffset dy="2" in="SourceGraphic" result="FeOffset2029Out"/><feGaussianBlur in="FeOffset2029Out" result="FeGaussianBlur2030Out" stdDeviation="0.8 0.8"/></filter><linearGradient id="qsz0n" x1="1176.6" x2="1176.27" y1="648.21" y2="609.52" gradientUnits="userSpaceOnUse"><stop offset="0" stop-color="#fc9c9d"/><stop offset="1" stop-color="#d53f3f"/></linearGradient><filter id="qsz0p" width="200%" height="200%" x="-50%" y="-50%"><feGaussianBlur in="SourceGraphic" result="FeGaussianBlur2051Out" stdDeviation="10 10"/></filter><mask id="qsz0q"><use fill="#fff" xlink:href="#qsz0b"/></mask><mask id="qsz0s" width="2" height="2" x="-1" y="-1"><path fill="#fff" d="M1166 620h22v18h-22z"/><use xlink:href="#qsz0c"/></mask><filter id="qsz0r" width="90" height="88" x="1132" y="586" filterUnits="userSpaceOnUse"><feOffset dy="2" in="SourceGraphic" result="FeOffset2066Out"/><feGaussianBlur in="FeOffset2066Out" result="FeGaussianBlur2067Out" stdDeviation="9.6 9.6"/></filter></defs><g><g transform="translate(-1134 -594)"><g filter="url(#qsz0d)"><use fill="none" stroke-opacity=".35" stroke-width="0" mask="url(&quot;#qsz0e&quot;)" xlink:href="#qsz0a"/><use fill="#ff4a4b" fill-opacity=".35" xlink:href="#qsz0a"/></g><use fill="#ff4a4b" xlink:href="#qsz0a"/><use fill="url(#qsz0f)" xlink:href="#qsz0a"/><use fill="#4596ba" stroke="#4596ba" stroke-width="0" filter="url(#qsz0h)" mask="url(&quot;#qsz0i&quot;)" xlink:href="#qsz0g"/></g><g opacity=".8" transform="translate(-1134 -594)"><g filter="url(#qsz0j)"><use fill="none" stroke-opacity=".05" stroke-width="0" mask="url(&quot;#qsz0k&quot;)" xlink:href="#qsz0b"/><use fill="#fff" fill-opacity=".05" xlink:href="#qsz0b"/></g><g filter="url(#qsz0j)"><use fill="none" stroke-opacity=".05" stroke-width="0" mask="url(&quot;#qsz0k&quot;)" xlink:href="#qsz0b"/><use fill="#fff" fill-opacity=".05" xlink:href="#qsz0b"/></g><g filter="url(#qsz0l)"><use fill="none" stroke-opacity=".75" stroke-width="0" mask="url(&quot;#qsz0m&quot;)" xlink:href="#qsz0b"/><use fill="#fc9ea0" fill-opacity=".75" xlink:href="#qsz0b"/></g><use fill="#ff4a4b" xlink:href="#qsz0b"/><use fill="url(#qsz0n)" xlink:href="#qsz0b"/><use fill="#ddb9ba" fill-opacity=".35" stroke="#ddb9ba" stroke-opacity=".35" stroke-width="0" filter="url(#qsz0p)" mask="url(&quot;#qsz0q&quot;)" xlink:href="#qsz0o"/></g><g transform="translate(-1134 -594)"><g filter="url(#qsz0r)"><use fill="none" stroke-opacity=".16" stroke-width="0" mask="url(&quot;#qsz0s&quot;)" xlink:href="#qsz0c"/><use fill-opacity=".16" xlink:href="#qsz0c"/></g><use fill="#fff" xlink:href="#qsz0c"/></g></g></svg>