<svg xmlns="http://www.w3.org/2000/svg" xmlns:xlink="http://www.w3.org/1999/xlink" width="171" height="37" viewBox="0 0 171 37"><defs><path id="5eb8a" d="M302.47 1787.9c-4.86 0-3.32-4.52-3.32-4.52l3-8.85c1.54-4.53 6.4-4.53 6.4-4.53h8.52c4.86 0 3.32 4.53 3.32 4.53l-3 8.85c-1.54 4.53-6.4 4.53-6.4 4.53zm-16.84 0s-4.87 0-6.4-4.52l-3.01-8.85s-1.54-4.53 3.33-4.53h8.51s4.87 0 6.4 4.53l3 8.85s1.55 4.53-3.32 4.53zm8.51 1.2c4.87 0 3.33 4.53 3.33 4.53l-3 8.85c-1.54 4.53-6.41 4.53-6.41 4.53h-8.51c-4.87 0-3.33-4.53-3.33-4.53l3-8.85c1.54-4.53 6.4-4.53 6.4-4.53zm14.41 17.9s-4.86 0-6.4-4.52l-3-8.85s-1.54-4.53 3.32-4.53H311s4.86 0 6.4 4.53l3 8.85s1.54 4.53-3.32 4.53zm39.77-19.54l-4.36 8.14-4.36-8.14v10.3h-4.13v-18.26h4l4.49 8.4 4.49-8.4h3.99v18.27h-4.12zm13.02 2.27h6.6v-3.86c0-2.06-1.3-3.1-3.27-3.1-2.02 0-3.33 1.04-3.33 3.1zm-4.12 8.04v-11.9c0-4.39 2.93-6.63 7.45-6.63 4.46 0 7.39 2.24 7.39 6.63v11.9h-4.12v-4.52h-6.6v4.52zm26.4-5.82l-3.72 5.82h-4.65l6.09-9.03-6.1-9.24h4.93l3.64 5.82 3.75-5.82h4.65l-6.09 9.03 6.09 9.24h-4.92zm18.96 2.3h3.45v3.52H395v-3.53h3.46v-11.22H395v-3.52h11.03v3.52h-3.45zm20.68-6.79l-4.36 8.14-4.36-8.14v10.3h-4.12v-18.26h3.99l4.49 8.4 4.5-8.4h3.98v18.27h-4.12zm13.03 2.27h6.6v-3.86c0-2.06-1.31-3.1-3.28-3.1-2.02 0-3.32 1.04-3.32 3.1zm-4.12 8.04v-11.9c0-4.39 2.92-6.63 7.44-6.63 4.47 0 7.4 2.24 7.4 6.63v11.9h-4.13v-4.52h-6.6v4.52z"/><path id="5eb8b" d="M426.76 1802.99c0-.92-.56-1.45-1.55-1.45s-1.56.53-1.56 1.45v1.44h3.11zm-1.55-2.02c1.37 0 2.18.76 2.18 2.02v3.94h-.63V1805h-3.1v1.92h-.64v-3.94c0-1.26.82-2.02 2.2-2.02 0 0-1.37 0 0 0zm-6.16.08h.64v5.88h-.55l-.04-.06-3.15-4.6v4.66h-.63v-5.88h.55l.04.06 3.14 4.6zm-7.06 0h.66l-.07.18-2.24 5.62-.03.08h-.62l-.03-.08-2.24-5.62-.06-.18h.68l.03.08 1.94 4.87 1.95-4.87zm-7.86 2.05c0-.99-.6-1.56-1.67-1.56-1.07 0-1.68.57-1.68 1.56v1.77c0 .49.15.88.44 1.15.29.27.71.4 1.24.4.52 0 .95-.13 1.24-.4.29-.27.43-.65.43-1.15zm-1.67-2.13c1.45 0 2.3.8 2.3 2.13v1.77c0 1.34-.86 2.14-2.3 2.14-1.45 0-2.3-.8-2.3-2.14v-1.77c0-1.33.85-2.13 2.3-2.13 0 0-1.44 0 0 0zm-9.18-1.2l-.18-.2h.68l.03.04.76.82.75-.82.04-.04h.67l-.18.2-.99 1.17-.03.04h-.53l-.03-.04zm-.9 1.28h4.67v.57h-2.16v3.18c0 .49.14.87.42 1.14.29.27.71.4 1.23.4h.51v.59h-.5c-1.44 0-2.3-.8-2.3-2.13v-3.18h-1.88zm-4.26 2.72c.96.2 1.46.71 1.46 1.55 0 1.07-.78 1.69-2.14 1.69-1.38 0-2.14-.65-2.14-1.81v-.17h.64v.17c0 .81.5 1.23 1.5 1.23.99 0 1.49-.37 1.49-1.08 0-.54-.31-.86-.94-.99l-1.16-.21c-.96-.19-1.46-.72-1.46-1.56 0-1 .68-1.56 1.9-1.6h-.1l-.04-.05-.99-1.17-.17-.2h.67l.04.04.76.82.75-.82.04-.04h.67l-.18.2-.99 1.17-.04.04h-.08c1.25.05 1.9.67 1.9 1.8v.17h-.62v-.16c0-.84-.47-1.25-1.44-1.25-.95 0-1.43.35-1.43 1.03 0 .54.3.87.94.98l1.16.22s-.97-.19 0 0zm-9.08-2.72h3.13v.57h-1.25v4.73h1.25v.58h-3.13v-.58h1.25v-4.73h-1.25zm-5.7 0h2.52v4.06c0 1.19-.77 1.9-2.07 1.9-.63 0-1.15-.17-1.5-.5a1.83 1.83 0 0 1-.56-1.4v-.18h.64v.18c0 .42.12.75.36.97.25.23.61.35 1.06.35.46 0 .82-.12 1.07-.35.24-.22.37-.55.37-.97v-3.49h-1.89zm-5.13 2.05c0-.99-.61-1.56-1.67-1.56-1.07 0-1.68.57-1.68 1.56v1.77c0 .49.15.88.43 1.15.29.27.72.4 1.24.4.53 0 .96-.13 1.24-.4.3-.27.44-.65.44-1.15zm-1.67-2.13c1.44 0 2.3.8 2.3 2.13v1.77c0 1.34-.86 2.14-2.31 2.14-1.45 0-2.3-.8-2.3-2.14v-1.77c0-1.33.86-2.13 2.3-2.13 0 0-1.44 0 0 0zm-6.24 2.84c.23-.21.34-.53.34-.94 0-.83-.42-1.25-1.25-1.25h-1.54v2.48h1.54c.39 0 .7-.1.9-.29zm-.9-2.76c1.2 0 1.89.66 1.89 1.82 0 1.15-.69 1.8-1.89 1.8h-1.55v2.26h-.63v-5.88z"/></defs><g><g transform="translate(-276 -1770)"><use fill="#df0900" xlink:href="#5eb8a"/></g><g transform="translate(-276 -1770)"><use xlink:href="#5eb8b"/></g></g></svg>