<svg xmlns="http://www.w3.org/2000/svg" xmlns:xlink="http://www.w3.org/1999/xlink" width="152" height="54" viewBox="0 0 152 54"><defs><path id="9sbva" d="M240.25 46.67c.1 2.72-.67 5.03-2 6.91l-.02.34c-1.85-.01-3.36-.82-3.36-.61 0 .2 1.48 1.33 3.3 1.37a36.5 36.5 0 0 1-2.55 10.56c.53.35.96.93.84 1.62-.01.1-.05.2-.08.3-.38.83-1.44.95-2.2.76-.43-.1-.83-.33-1.17-.64-.42-.37-.61-1.03-.69-1.59a7.84 7.84 0 0 0-1.94-4.47 4.53 4.53 0 0 0-3.25-1.43c-1.23 0-2.37.54-3.24 1.43a7.84 7.84 0 0 0-1.96 4.47c-.07.56-.26 1.22-.68 1.6-.34.3-.74.52-1.18.63-.75.19-1.81.07-2.18-.77a1.2 1.2 0 0 1-.09-.3c-.12-.68.32-1.26.84-1.61a36.5 36.5 0 0 1-2.55-10.56c1.83-.04 3.32-1.17 3.32-1.37 0-.21-1.51.6-3.37.61l-.02-.34a10.93 10.93 0 0 1-2.01-6.91c.68-5.56 3.11-9.97 6.23-11.37a10 10 0 0 1-1.39-1.1c-1.71-1.7-2.11-3.91-1.96-6.32.06-.88.23-1.74.47-2.58-1.88-.08-2.42-2.5-2.42-4.53a3.65 3.65 0 0 1 3.55-3.74c1.35 0 2.53.8 3.13 1.97a9.36 9.36 0 0 1 4.2-1.77c-.02-.35-.08-.7-.19-1.05.23.28.42.61.57 1h.08c.04-.64.01-1.26-.05-1.9.26.57.48 1.18.6 1.84a11.6 11.6 0 0 0-.02-3.12c.3 1 .56 2.02.63 3.14l.59-1.3c-.05.46-.05.9.05 1.34h.11c.2-.3.44-.53.76-.7-.12.27-.21.53-.26.8a9.4 9.4 0 0 1 3.96 1.72 3.53 3.53 0 0 1 3.13-1.97 3.64 3.64 0 0 1 3.54 3.74c0 2.03-.53 4.46-2.42 4.53.24.84.4 1.7.47 2.58.16 2.4-.24 4.62-1.96 6.32-.43.42-.9.77-1.39 1.1 3.12 1.4 5.55 5.8 6.23 11.37zm57.83-14.86l.49.03a6.78 6.78 0 0 1 1.87.39c.36.12.72.3 1.07.53a3.84 3.84 0 0 1 1.63 2.12 5.6 5.6 0 0 1-.01 3.5 3.96 3.96 0 0 1-1.7 2.1 6.83 6.83 0 0 1-2.94.9l-.41.01h-1.96v5.8c0 .1-.04.18-.12.26a.52.52 0 0 1-.36.11h-2.42a.5.5 0 0 1-.33-.1c-.08-.1-.12-.18-.12-.27V32.2c0-.1.04-.2.12-.26.08-.09.2-.12.33-.13zm0 6.34l.34-.02a2.68 2.68 0 0 0 1.04-.33c.18-.11.31-.25.42-.45.11-.2.18-.43.18-.72a1.37 1.37 0 0 0-.6-1.18c-.18-.12-.36-.2-.55-.27l-.5-.1-.33-.02h-1.96v3.09zm18.88-3.82a6.03 6.03 0 0 1 .69 1.8c.04.26.08.46.08.63l.03.3v10.06a.41.41 0 0 1-.15.26.6.6 0 0 1-.35.13h-2.47a.68.68 0 0 1-.35-.13c-.08-.08-.12-.16-.12-.26v-2.34h-5.23v2.34c0 .1-.04.18-.13.26a.64.64 0 0 1-.36.13h-2.48a.58.58 0 0 1-.32-.13c-.09-.08-.14-.16-.14-.26V37.06l.01-.3.1-.62c.05-.25.12-.53.23-.85a5.58 5.58 0 0 1 2.16-2.77 5.8 5.8 0 0 1 1.5-.64 8.45 8.45 0 0 1 4.06 0 5.26 5.26 0 0 1 3.24 2.45zm-2.64 7.38V37.1l-.03-.22a3.55 3.55 0 0 0-.08-.45 1.6 1.6 0 0 0-.2-.47v.03c-.22-.35-.52-.6-.9-.77a3.3 3.3 0 0 0-1.43-.27c-.55 0-1.01.1-1.4.28-.38.17-.68.45-.9.8a2.55 2.55 0 0 0-.26.87c-.01.12-.03.17-.03.17v4.65zm19.89 5.4c0 .1-.04.19-.13.27a.6.6 0 0 1-.34.13h-2.49a.53.53 0 0 1-.2-.04.39.39 0 0 1-.18-.13l-2.2-3.19-2.11-3.08-2.2-3.2v9.25c0 .1-.06.18-.14.26a.59.59 0 0 1-.33.13h-2.5a.59.59 0 0 1-.34-.13c-.1-.08-.13-.16-.13-.26V32.05c0-.11.04-.21.13-.28.09-.08.2-.13.33-.14h2.52a.6.6 0 0 1 .2.04.4.4 0 0 1 .18.13c.74 1.07 1.47 2.14 2.2 3.16l2.14 3.1 2.2 3.18v-9.2c0-.1.05-.2.13-.27.08-.08.2-.13.34-.14h2.45c.15.01.26.06.34.14.09.07.13.17.13.28zm6.18-15.48c.63 0 1.3.04 2 .1.7.07 1.38.2 2.07.4.68.2 1.34.46 1.94.82a6.4 6.4 0 0 1 1.63 1.44c.46.58.85 1.3 1.1 2.14.28.87.42 1.88.43 3.05-.01 1.13-.15 2.1-.4 2.94a6.4 6.4 0 0 1-2.72 3.58c-.61.38-1.27.67-1.96.88a14.52 14.52 0 0 1-4.1.54h-2.46a.5.5 0 0 1-.35-.12.34.34 0 0 1-.12-.25v-15.1c0-.11.04-.21.12-.28.1-.08.2-.13.35-.14zm.5 12.56c.3.02.64 0 1-.01a6.6 6.6 0 0 0 1.14-.18c.4-.1.77-.25 1.14-.45a3.67 3.67 0 0 0 1.67-2.1c.16-.52.26-1.14.26-1.87a5.3 5.3 0 0 0-.4-2.14 3.5 3.5 0 0 0-1.1-1.44 4.34 4.34 0 0 0-1.65-.8 7.61 7.61 0 0 0-2.06-.23zm22.63-9.86a5.86 5.86 0 0 1 .78 2.73v10.06c0 .1-.05.18-.14.26-.1.07-.2.11-.35.13h-2.48a.59.59 0 0 1-.33-.13c-.1-.08-.13-.16-.13-.26v-2.34h-5.22v2.34a.4.4 0 0 1-.15.26.6.6 0 0 1-.34.13h-2.48a.68.68 0 0 1-.34-.13c-.08-.08-.12-.16-.12-.26V37.06l.01-.3c0-.16.04-.37.08-.62a6.02 6.02 0 0 1 1.35-2.74 5.25 5.25 0 0 1 2.55-1.52 8.57 8.57 0 0 1 4.05 0 5.8 5.8 0 0 1 1.51.64 5.71 5.71 0 0 1 1.75 1.81zm-2.65 7.38V37.1l-.02-.22a2.12 2.12 0 0 0-.3-.92v.03c-.22-.35-.52-.6-.9-.77a3.24 3.24 0 0 0-1.41-.27c-.55 0-1.03.1-1.41.28a1.92 1.92 0 0 0-1.08 1.27l-.08.4-.02.17v4.65zM251.85 56.08c-.45-.47-.66-1.15-.66-2.02 0-.44.06-.82.2-1.17a2.36 2.36 0 0 1 1.38-1.4c.33-.11.68-.17 1.05-.17.22 0 .42.01.6.05l.46.1.34.14.2.11-.34.95a2.76 2.76 0 0 0-1.27-.31c-.18 0-.35.04-.52.1-.18.06-.33.16-.46.29-.13.13-.24.3-.32.5a2.67 2.67 0 0 0-.04 1.45c.05.22.14.4.26.55.11.16.26.28.46.37.18.09.41.13.67.13a2.78 2.78 0 0 0 1.09-.2l.22-.1.32.95c-.16.1-.4.2-.7.27-.29.08-.63.12-1.03.12-.83 0-1.47-.23-1.91-.7zm8.2-4.64v1.01h-1.54v4.24h-1.17v-4.24h-1.55v-1zm4.07.35c.41.27.62.73.62 1.35 0 .63-.2 1.1-.63 1.37a3.2 3.2 0 0 1-1.79.42h-.35v1.76h-1.17v-5.18a8.49 8.49 0 0 1 1.55-.13c.77 0 1.36.14 1.77.4zm-1.95.6l-.2.02v1.51h.35a2 2 0 0 0 .92-.16c.2-.11.3-.32.3-.62a.76.76 0 0 0-.08-.37.5.5 0 0 0-.22-.23c-.1-.06-.22-.1-.36-.12-.13-.02-.3-.04-.46-.04-.08 0-.16 0-.25.02zm6.88 4.3l-.19-.56-.2-.58h-2l-.2.58-.19.56h-1.2a102.47 102.47 0 0 1 1.06-2.92c.16-.43.33-.83.5-1.22.15-.38.32-.75.5-1.1h1.1a35 35 0 0 1 .99 2.32 102.55 102.55 0 0 1 1.07 2.92zm-1.52-3.75l-.16.45-.22.57-.22.65h1.45l-.23-.65-.2-.57-.18-.45c-.05-.13-.1-.23-.12-.31-.03.08-.06.18-.12.3zm6.39 3.75a18.12 18.12 0 0 0-1.07-1.81c-.07.08-.16.22-.26.37-.1.17-.22.33-.32.52l-.3.52-.22.4h-1.31c.22-.4.47-.84.76-1.3.28-.44.6-.91.97-1.42l-1.67-2.53h1.42l1 1.63.98-1.63h1.32l-1.63 2.54a19.55 19.55 0 0 1 1.71 2.71zm3.12-1.94c.07.21.15.4.27.53.12.16.26.27.43.36.17.08.36.11.57.11.22 0 .42-.03.58-.11.17-.09.31-.2.43-.36.12-.14.21-.32.28-.53a2.71 2.71 0 0 0 0-1.4 1.68 1.68 0 0 0-.28-.53 1.35 1.35 0 0 0-.43-.35 1.34 1.34 0 0 0-.58-.12 1.23 1.23 0 0 0-1 .48c-.12.15-.2.33-.27.54-.06.21-.09.43-.09.69 0 .26.03.48.09.7zm3.64.5c-.13.33-.3.62-.53.85-.23.23-.5.4-.81.51a2.8 2.8 0 0 1-1.03.18 2.7 2.7 0 0 1-.99-.18 2.24 2.24 0 0 1-1.37-1.37c-.13-.33-.2-.73-.2-1.18 0-.45.07-.84.21-1.19a2.45 2.45 0 0 1 1.38-1.38 2.97 2.97 0 0 1 1.97 0c.32.12.6.3.82.53.24.23.42.5.55.85.13.35.2.74.2 1.19 0 .45-.07.85-.2 1.18zm2.05 1.47a5.04 5.04 0 0 1-.88-.12v-5.09a7.6 7.6 0 0 1 1.57-.13c.33 0 .62.02.9.08.28.04.52.12.71.24.2.1.36.26.47.45.11.19.17.42.17.71 0 .41-.2.74-.6.99.33.13.55.3.67.52.12.2.18.45.18.73 0 .55-.2.96-.6 1.24-.38.27-.97.42-1.75.42-.29 0-.57-.01-.84-.04zm.25-2.32v1.35l.28.02.33.01c.35 0 .62-.04.84-.14.21-.11.31-.29.31-.57 0-.24-.09-.42-.26-.52-.18-.1-.44-.15-.77-.15zm0-.9h.56c.36 0 .62-.05.78-.14.15-.09.23-.24.23-.46 0-.2-.08-.35-.24-.44-.17-.09-.4-.13-.7-.13l-.33.01-.3.01zm7.32 3.2c-.06-.2-.11-.39-.19-.57l-.2-.58h-2l-.19.58c-.07.18-.13.37-.18.56h-1.21l.55-1.57.5-1.35a88.46 88.46 0 0 1 1-2.33h1.11l.5 1.11.5 1.22a69.35 69.35 0 0 1 1.05 2.92zm-1.5-3.76l-.18.45-.2.57-.24.65h1.47l-.23-.65c-.08-.2-.14-.4-.22-.57l-.17-.45c-.05-.13-.1-.23-.12-.31l-.11.3zm6.52-1.5h1.17v5.25h-1.17v-2.23h-1.94v2.23h-1.17v-5.25h1.17v2h1.94zm2.35 5.25v-5.25h1.16v3.1a42.19 42.19 0 0 1 1.18-1.71c.2-.28.42-.53.61-.78.2-.24.38-.44.54-.6h.95v5.24h-1.15v-3.44a21.45 21.45 0 0 0-2.3 3.44zm5.63 0v-5.25h3.48v.99h-2.32v1.03h2.06v.97h-2.06v1.26h2.5v1zm6.3 0v-5.25h1.15v3.1l.56-.86.62-.85c.2-.28.4-.53.6-.78.2-.24.38-.44.54-.6h.95v5.24h-1.14v-3.44a19.13 19.13 0 0 0-2.32 3.44zm8.72-5.25h1.16v5.25h-1.16v-2.23h-1.95v2.23h-1.15v-5.25h1.15v2h1.95zm3.42 3.31c.06.21.16.4.26.53.12.16.27.27.44.36.16.08.36.11.58.11.21 0 .4-.03.57-.11.18-.09.32-.2.44-.36.1-.14.2-.32.26-.53.06-.2.1-.43.1-.7 0-.25-.04-.48-.1-.7a1.67 1.67 0 0 0-.26-.53 1.35 1.35 0 0 0-.44-.35 1.38 1.38 0 0 0-1.15.01c-.17.08-.32.2-.44.35-.1.15-.2.33-.26.54-.06.21-.1.43-.1.69 0 .26.04.48.1.7zm3.65.5a2.24 2.24 0 0 1-1.36 1.37c-.32.12-.66.17-1.01.17s-.69-.05-1-.18c-.31-.1-.58-.28-.82-.5a2.48 2.48 0 0 1-.54-.87c-.15-.33-.21-.73-.21-1.18 0-.45.06-.84.2-1.19a2.47 2.47 0 0 1 1.39-1.38 2.94 2.94 0 0 1 1.98 0c.3.12.57.3.81.53.23.23.42.5.55.85.14.35.2.74.2 1.19 0 .45-.06.85-.2 1.18zm1.6.83a2.9 2.9 0 0 1-.67-2.02c0-.44.07-.82.2-1.17.14-.34.32-.62.55-.86.24-.23.51-.4.84-.53a3.23 3.23 0 0 1 1.64-.13c.19.03.34.07.47.1l.34.14.2.11-.34.95a2.76 2.76 0 0 0-1.27-.31c-.18 0-.35.04-.53.1-.17.06-.32.16-.46.29-.13.13-.23.3-.31.5-.08.23-.12.49-.12.78 0 .25.03.47.08.68.05.21.14.4.26.54.1.16.26.28.45.37.19.09.42.13.69.13a5.36 5.36 0 0 0 .8-.1l.28-.1.21-.1.33.95c-.16.1-.4.2-.7.27-.29.08-.64.12-1.03.12-.84 0-1.48-.23-1.91-.7zm8.2-4.64v1.01h-1.55v4.24h-1.16v-4.24h-1.56v-1zm4.06.35c.42.27.62.73.62 1.35 0 .63-.2 1.1-.63 1.37a3.2 3.2 0 0 1-1.78.42h-.36v1.76h-1.16v-5.18a8.5 8.5 0 0 1 1.54-.13c.77 0 1.36.14 1.77.4zm-1.94.6l-.2.02v1.51h.35a2 2 0 0 0 .91-.16c.2-.11.3-.32.3-.62a.76.76 0 0 0-.08-.37.5.5 0 0 0-.22-.23c-.1-.06-.21-.1-.36-.12a2.74 2.74 0 0 0-.45-.04c-.09 0-.17 0-.25.02zm6.87 4.3c-.05-.19-.12-.38-.18-.56l-.2-.58h-2.01l-.2.58c-.06.18-.13.37-.18.56h-1.2a49.13 49.13 0 0 1 1.55-4.14c.16-.38.32-.75.5-1.1h1.1a35 35 0 0 1 .99 2.32c.18.42.34.87.52 1.35l.55 1.57zm-1.5-3.75l-.17.45-.22.57-.23.65h1.47l-.24-.65-.2-.57c-.07-.16-.14-.32-.18-.45l-.12-.31-.1.3zm6.52-1.5h1.16v5.25h-1.16v-2.23h-1.95v2.23h-1.16v-5.25h1.16v2h1.95zm6.59 4.24h.89v2.4h-1.11V56.7h-4.02v-5.25h1.16v4.24h1.92v-4.24h1.16zm1.64 1.01v-5.25h3.48v.99h-2.33v1.03h2.07v.97h-2.07v1.26h2.5v1zm5.38.03a5.04 5.04 0 0 1-.88-.12v-5.09a7.6 7.6 0 0 1 1.57-.13c.34 0 .63.02.91.08.27.04.51.12.7.24.2.1.36.26.48.45.1.19.16.42.16.71 0 .41-.2.74-.6.99.33.13.56.3.68.52.12.2.17.45.17.73 0 .55-.2.96-.59 1.24-.39.27-.98.42-1.76.42-.28 0-.56-.01-.84-.04zm.25-2.32v1.35l.28.02.33.01c.34 0 .62-.04.84-.14.2-.11.32-.29.32-.57 0-.24-.1-.42-.27-.52-.18-.1-.43-.15-.77-.15zm0-.9h.57c.36 0 .6-.05.77-.14.15-.09.23-.24.23-.46 0-.2-.09-.35-.24-.44-.16-.09-.4-.13-.7-.13l-.32.01-.3.01z"/><path id="9sbvb" d="M231.33 36.49c-1.46 1.28-3.06 2.01-4.23 2.01-1.16 0-2.47-.52-4.16-2.01-2.16-1.9-5.49-2.45-5.49-8.57.68-5.2 4.35-10.21 9.68-10.21s9 5.02 9.69 10.21c0 6.12-3.34 6.67-5.5 8.57zm-4.2-.8c1.52 0 2.76-1.18 2.76-1.43s-1.24.54-2.76.54c-1.52 0-2.76-.79-2.76-.54s1.24 1.43 2.76 1.43zm-2.92-11.58c-.89-.95-2.89-1.08-3.67-.04.23-.14.49-.22.77-.22a2.88 2.88 0 0 0-1.44 2.53 2.8 2.8 0 0 0 2.71 2.87c2.53 0 4.59-2.65 1.63-5.14zm2.94 5.87h-.03c-.9 0-1.64.64-1.64 1.43 0 .45.41.55.59.59.39.08.51.3.65.43.09.08.25.12.41.12.16 0 .32-.04.41-.12.14-.13.27-.35.65-.43.18-.04.6-.14.6-.6 0-.78-.74-1.42-1.64-1.42zm5.82-6.13c.28 0 .54.08.77.22-.79-1.04-2.79-.91-3.67.04-2.96 2.49-.9 5.14 1.63 5.14a2.8 2.8 0 0 0 2.72-2.87c0-1.1-.6-2.05-1.45-2.53zm-1.62 3.03v.1c0 .07-.05.13-.12.13-.07 0-.12-.06-.12-.13v-.1c0-.07.05-.13.12-.13.07 0 .12.06.12.13zm-.36-.64v-.2c0-.14.1-.25.24-.25.13 0 .24.1.24.25v.2c0 .14-.1.25-.24.25a.25.25 0 0 1-.24-.25zm.28 1.65a1 1 0 0 1-.66-.25c.1.05.22.08.34.08.47 0 .85-.4.85-.9v-.69c0-.49-.38-.89-.85-.89a.83.83 0 0 0-.64.3c.16-.39.53-.66.96-.66.57 0 1.03.48 1.03 1.09v.83c0 .6-.46 1.09-1.03 1.09zm-8.79-1.76v.7c0 .49.38.89.85.89.12 0 .23-.03.34-.08a1 1 0 0 1-.66.25c-.57 0-1.03-.49-1.03-1.09v-.83c0-.6.46-1.1 1.03-1.1.43 0 .8.28.95.67a.83.83 0 0 0-.63-.3c-.47 0-.85.4-.85.9zm1.18.75v.1c0 .07-.05.13-.12.13a.13.13 0 0 1-.12-.13v-.1c0-.07.05-.13.12-.13.07 0 .12.06.12.13zm-.36-.64v-.2c0-.14.1-.25.24-.25.13 0 .24.1.24.25v.2c0 .14-.1.25-.24.25a.25.25 0 0 1-.24-.25zm-3.89 27.07c0 .2-1.49 1.33-3.33 1.37l-.04-.76c1.86 0 3.37-.82 3.37-.61zm6.65-14.22l.27 1.67-.05.54-.52 5.14-1.38-5.73.8-1.9c.27.13.57.24.88.28zm1.07 15.16a.4.4 0 0 1 .39.4.4.4 0 0 1-.39.4.4.4 0 0 1-.39-.4c0-.22.18-.4.39-.4zm0 1.61a.4.4 0 0 1 .39.41.4.4 0 0 1-.39.4.4.4 0 0 1-.39-.4c0-.22.18-.4.39-.4zm1.94-17.06l.8 1.9-1.36 5.74-.48-5.68.28-1.68c.24-.05.49-.14.76-.28zm4 7.02l1.42-.84.07 1.39h-2.4l.05-1.06zm5.16 8.1l-.06.76c-1.82-.04-3.3-1.17-3.3-1.37 0-.21 1.51.6 3.36.61z"/><path id="9sbvc" d="M222 36.49c.2.14.4.28.58.44a9.5 9.5 0 0 0 2.66 1.76l-.86 2.02 1.38 5.73.52-5.14h1.8l-.05-.54h-1.7l-.3-1.82a4.77 4.77 0 0 0 2.3-.02l-.3 1.84.48 5.68 1.37-5.73-.86-2.02a9.42 9.42 0 0 0 2.66-1.76l.56-.44 1.32 4.1-1.72 1.05 1.31.76-6.02 9.78-6.02-9.78 1.31-.76-1.72-1.06zm34 4.75h-1.13v5.88c0 .1-.04.18-.14.26a.64.64 0 0 1-.35.13h-2.42a.58.58 0 0 1-.33-.13c-.08-.08-.13-.16-.13-.26V32.2c0-.1.05-.2.13-.26.08-.09.19-.12.33-.13h4.83l.72.03a7.35 7.35 0 0 1 2.3.58 3.84 3.84 0 0 1 2 2.16c.22.55.33 1.2.34 1.98a5.45 5.45 0 0 1-.37 2 3.93 3.93 0 0 1-.98 1.39c-.4.34-.87.64-1.37.83l.72 1.6.73 1.58 1.35 2.99c.06.15.05.28-.02.38-.07.1-.2.16-.37.18h-2.69a.47.47 0 0 1-.16-.04l-.16-.1-.1-.11zm-1.13-3.02h1.92c.15 0 .33-.02.54-.04.22-.03.44-.1.66-.2.22-.11.41-.26.56-.49.14-.2.22-.5.22-.86 0-.3-.05-.53-.16-.72a1.52 1.52 0 0 0-.95-.74c-.17-.07-.35-.1-.5-.13l-.37-.03h-1.92zm13.36-3.2v3.11h5.6c.15 0 .26.03.34.12.07.07.1.16.1.26v2.38c0 .1-.03.18-.1.27a.44.44 0 0 1-.33.12h-5.61v3.07h6.81c.14 0 .26.04.35.1.1.1.13.17.13.29v2.4c0 .09-.04.19-.13.26a.47.47 0 0 1-.35.12h-9.7a.44.44 0 0 1-.33-.12.34.34 0 0 1-.12-.25V32.2c0-.1.04-.2.12-.26.08-.09.2-.12.33-.13h9.7c.14.01.26.04.35.13.1.07.13.16.13.26v2.44c0 .08-.04.18-.13.25a.47.47 0 0 1-.35.12zm12.67-3.2c.63 0 1.29.02 1.96.09.68.07 1.35.2 2.02.39.67.2 1.3.47 1.9.82.6.36 1.13.84 1.6 1.4.46.58.81 1.29 1.09 2.12.26.84.4 1.84.4 2.98 0 1.1-.14 2.08-.4 2.9a6.3 6.3 0 0 1-2.66 3.55c-.59.38-1.21.67-1.89.88-.67.21-1.35.36-2.03.45-.69.1-1.35.14-1.99.12h-2.43a.44.44 0 0 1-.33-.12.42.42 0 0 1-.14-.25V32.2c.01-.1.05-.2.14-.26.08-.09.19-.12.33-.13zm.47 12.55c.3.02.64-.01 1-.04a6.7 6.7 0 0 0 1.12-.22 3.73 3.73 0 0 0 2.75-2.65c.18-.51.26-1.13.26-1.84 0-.89-.11-1.64-.36-2.24a3.24 3.24 0 0 0-.97-1.45 3.81 3.81 0 0 0-1.5-.78 6.78 6.78 0 0 0-1.9-.22l-.14-.01h-.1l-.16.01z"/></defs><g><g transform="translate(-214 -14)"><use xlink:href="#9sbva"/></g><g transform="translate(-214 -14)"><use fill="#fff" xlink:href="#9sbvb"/></g><g transform="translate(-214 -14)"><use fill="#e72f34" xlink:href="#9sbvc"/></g></g></svg>