<svg xmlns="http://www.w3.org/2000/svg" xmlns:xlink="http://www.w3.org/1999/xlink" width="17" height="17" viewBox="0 0 17 17"><defs><path id="zv3oa" d="M306.42 2616.46v12.66h3.17v1.38h-3.33c-.69 0-1.26-.54-1.26-1.21v-13.08c0-.67.57-1.2 1.26-1.2h6.35c.62 0 1.21.23 1.65.66l2.73 2.67c.43.42.67 1 .67 1.59v5.14h-1.42v-5.11h-.02l-2.76.02a.88.88 0 0 1-.92-.89v-2.63zm7.55 2.15l1.25-.03-1.25-1.17zm-6.51.1a.7.7 0 0 1 .71-.68h2c.4 0 .71.3.71.69a.7.7 0 0 1-.71.69h-2a.7.7 0 0 1-.71-.7zm7.78 2.68a.7.7 0 0 1-.72.7h-6.35a.7.7 0 0 1-.71-.7.7.7 0 0 1 .71-.68h6.35c.4 0 .72.3.72.68zm0 2.66c0 .38-.32.75-.72.75h-6.35c-.4 0-.71-.37-.71-.75s.32-.75.71-.75h6.35c.4 0 .72.37.72.75zm-7.07 1.93h1.42v1.37h-1.42a.7.7 0 0 1-.71-.68.7.7 0 0 1 .71-.7zm6.09 2.44c0 .3-.23.48-.6.48-.09 0-.14 0-.22-.02v-.87l.28-.02c.34 0 .54.16.54.43zm6.7-2.48c.57 0 1.04.45 1.04 1v4.05c0 .55-.47 1-1.04 1h-9.28c-.58 0-1.04-.45-1.04-1v-4.05c0-.55.46-1 1.04-1zm-6.03 2.46a.85.85 0 0 0-.32-.68c-.2-.15-.5-.23-.93-.23-.42 0-.69.02-.93.06v2.91h.69v-1.07l.23.02c.4 0 .75-.1.99-.31a.92.92 0 0 0 .27-.7zm3.12.5c0-.51-.2-.87-.51-1.1-.3-.21-.66-.31-1.24-.31-.34 0-.67.02-.92.06v2.88c.17.02.42.04.78.04.59 0 1.07-.12 1.39-.37.29-.24.5-.63.5-1.2zm2.28-1.39h-1.82v2.95h.69v-1.18h1.1v-.55h-1.1v-.67h1.13zm-3 1.42c0 .7-.4 1.03-1.03 1.03-.08 0-.19 0-.23-.02v-1.92l.3-.02c.6 0 .96.32.95.93z"/></defs><g><g transform="translate(-305 -2615)"><use fill="red" xlink:href="#zv3oa"/></g></g></svg>