<svg xmlns="http://www.w3.org/2000/svg" xmlns:xlink="http://www.w3.org/1999/xlink" width="30" height="31" viewBox="0 0 30 31"><defs><path id="4c4ea" d="M1130 1874.15c0 2.98-1.12 5.78-3.16 7.88a10.57 10.57 0 0 1-14.25.93l-2.08 2.15.21.21c.29.3.29.78 0 1.08l-6.66 6.87a2.35 2.35 0 0 1-3.39 0 2.54 2.54 0 0 1 0-3.5l6.66-6.87c.29-.3.75-.3 1.04 0l.21.22 2.08-2.15a11.3 11.3 0 0 1-2.26-6.82c0-2.98 1.12-5.78 3.16-7.88a10.56 10.56 0 0 1 15.28 0c2.04 2.1 3.16 4.9 3.16 7.88zm-1.48 0c0-2.57-.97-4.99-2.73-6.8a9.12 9.12 0 0 0-13.18 0 9.72 9.72 0 0 0-2.73 6.8c0 2.57.97 4.99 2.73 6.8a9.12 9.12 0 0 0 13.18 0 9.72 9.72 0 0 0 2.73-6.8zm-8.8-7.7c.05.42-.23.8-.64.86-.25.03-6.11.96-6.11 6.84 0 .42-.33.76-.74.76a.75.75 0 0 1-.74-.76 7.82 7.82 0 0 1 3.73-6.94c1.8-1.14 3.59-1.4 3.66-1.41.4-.06.78.23.84.65z"/></defs><g><g transform="translate(-1100 -1863)"><use fill="#fe2f2f" xlink:href="#4c4ea"/></g></g></svg>