<svg xmlns="http://www.w3.org/2000/svg" xmlns:xlink="http://www.w3.org/1999/xlink" width="15" height="16" viewBox="0 0 15 16"><defs><path id="apvfa" d="M517.03 282.17c-.2-2.2-2.53-3.28-2.63-3.33a.51.51 0 0 0-.3-.04c-2.7.44-3.1 1.99-3.12 2.05a.5.5 0 0 0 .01.27c3.22 9.83 9.91 11.65 12.11 12.25l.42.12.15.02.22-.04c.06-.03 1.65-.77 2.04-3.17a.5.5 0 0 0-.05-.3 4.83 4.83 0 0 0-3.17-2.18.5.5 0 0 0-.45.1 6.83 6.83 0 0 1-2.17 1.33c-2.9-1.4-4.52-4.08-4.59-4.59-.03-.28.64-1.29 1.4-2.1a.5.5 0 0 0 .13-.39z"/></defs><g><g transform="translate(-511 -278)"><use fill="#fe2f2f" xlink:href="#apvfa"/></g></g></svg>