<svg xmlns="http://www.w3.org/2000/svg" xmlns:xlink="http://www.w3.org/1999/xlink" width="20" height="11" viewBox="0 0 20 11"><defs><path id="qun2a" d="M296.73 2621.6l.67-.86c1.2-1.54 1.72-2.52 1.56-2.95l-.06-.1c-.04-.06-.15-.12-.32-.17-.17-.05-.4-.06-.67-.02l-3 .02a.88.88 0 0 0-.34.03l-.05.03-.04.03a.45.45 0 0 0-.12.1.68.68 0 0 0-.1.18 16.15 16.15 0 0 1-1.82 3.34 5.2 5.2 0 0 1-.94 1.02c-.12.08-.21.12-.27.1a5.57 5.57 0 0 1-.18-.03.68.68 0 0 1-.23-.25c-.06-.1-.1-.23-.12-.4a4.1 4.1 0 0 1-.03-.88v-.42a24.14 24.14 0 0 1 .05-1.54v-.55c0-.2 0-.35-.03-.46a1.55 1.55 0 0 0-.1-.32.54.54 0 0 0-.22-.24c-.1-.06-.21-.1-.35-.13a7.2 7.2 0 0 0-1.4-.13 7.08 7.08 0 0 0-2.5.24c-.14.07-.27.17-.4.3-.12.15-.13.23-.04.24.41.06.7.2.88.43l.06.12c.05.09.1.24.15.46a7.54 7.54 0 0 1-.15 3.27l-.12.23a.18.18 0 0 1-.05.05.81.81 0 0 1-.28.05.67.67 0 0 1-.36-.14c-.14-.1-.28-.23-.43-.39-.15-.16-.32-.4-.5-.69-.2-.3-.39-.64-.59-1.04l-.16-.3a24.53 24.53 0 0 1-.91-1.85.67.67 0 0 0-.25-.32l-.05-.03a1.14 1.14 0 0 0-.4-.15l-2.86.02c-.3 0-.5.06-.6.19l-.04.06a.32.32 0 0 0-.03.16c0 .07.02.16.06.27a32.62 32.62 0 0 0 3.74 6.37 22.41 22.41 0 0 0 1.03 1.21l.26.24a12.5 12.5 0 0 0 1.8 1.24 5.93 5.93 0 0 0 2.9.7h1.2c.24-.02.43-.1.55-.22l.04-.05a1 1 0 0 0 .11-.46c0-.29.02-.55.07-.78.06-.23.12-.4.18-.52a1.3 1.3 0 0 1 .4-.44.85.85 0 0 1 .09-.04c.16-.05.36 0 .58.16.23.15.44.35.64.58.2.23.43.49.71.78.28.28.52.5.73.64l.21.12c.14.08.32.15.54.22.22.07.42.08.58.05l2.67-.04c.26 0 .47-.04.61-.13.15-.08.24-.17.26-.27a.75.75 0 0 0 .01-.34 1.2 1.2 0 0 0-.07-.27 10.1 10.1 0 0 0-2.06-2.34l-.02-.02-.01-.01-.01-.01h-.01c-.45-.41-.73-.69-.85-.83-.21-.26-.26-.53-.14-.81.08-.2.4-.65.94-1.32z"/></defs><g><g transform="translate(-279 -2617)"><use fill="#fe2f2f" xlink:href="#qun2a"/></g></g></svg>